<svg xmlns="http://www.w3.org/2000/svg" width="650.2905883789062" height="378.32513427734375" viewBox="-267.8262939453125 -88.83116149902344 650.2905883789062 378.32513427734375"><title>Neo4j Graph Visualization</title><desc>Created using Neo4j (http://www.neo4j.com/)</desc><g class="layer relationships"><g class="relationship" transform="translate(-143.297298710137 -1.558951696054109) rotate(410.74265237919263)"><path class="outline" fill="#A5ABB6" stroke="none" d="M 40 0.5 L 123.42766829401526 0.5 L 123.42766829401526 -0.5 L 40 -0.5 Z M 152.98626204401526 0.5 L 236.41393033803053 0.5 L 236.41393033803053 3.5 L 243.41393033803053 0 L 236.41393033803053 -3.5 L 236.41393033803053 -0.5 L 152.98626204401526 -0.5 Z"/><text text-anchor="middle" pointer-events="none" font-size="8px" fill="#000000" x="138.20696516901526" y="3" font-family="sans-serif">CITES</text></g><g class="relationship" transform="translate(318.76527742267047 245.49397854368692) rotate(185.57623798423162)"><path class="outline" fill="#A5ABB6" stroke="none" d="M 40 0.5 L 123.75128662994547 0.5 L 123.75128662994547 -0.5 L 40 -0.5 Z M 153.30988037994547 0.5 L 237.06116700989094 0.5 L 237.06116700989094 3.5 L 244.06116700989094 0 L 237.06116700989094 -3.5 L 237.06116700989094 -0.5 L 153.30988037994547 -0.5 Z"/><text text-anchor="middle" pointer-events="none" font-size="8px" fill="#000000" x="138.53058350494547" y="3" transform="rotate(180 138.53058350494547 0)" font-family="sans-serif">CITES</text></g><g class="relationship" transform="translate(338.4642748002402 88.92328513629869) rotate(516.9036700899293)"><path class="outline" fill="#A5ABB6" stroke="none" d="M 40 0.5 L 146.10458896475615 0.5 L 146.10458896475615 -0.5 L 40 -0.5 Z M 175.66318271475615 0.5 L 281.7677716795123 0.5 L 281.7677716795123 3.5 L 288.7677716795123 0 L 281.7677716795123 -3.5 L 281.7677716795123 -0.5 L 175.66318271475615 -0.5 Z"/><text text-anchor="middle" pointer-events="none" font-size="8px" fill="#000000" x="160.88388583975615" y="3" transform="rotate(180 160.88388583975615 0)" font-family="sans-serif">CITES</text></g><g class="relationship" transform="translate(152.65651127967078 98.02209876260329) rotate(494.2098385296363)"><path class="outline" fill="#A5ABB6" stroke="none" d="M 40 0.5 L 65.33617429100613 0.5 L 65.33617429100613 -0.5 L 40 -0.5 Z M 94.89476804100613 0.5 L 120.23094233201226 0.5 L 120.23094233201226 3.5 L 127.23094233201226 0 L 120.23094233201226 -3.5 L 120.23094233201226 -0.5 L 94.89476804100613 -0.5 Z"/><text text-anchor="middle" pointer-events="none" font-size="8px" fill="#000000" x="80.11547116600613" y="3" transform="rotate(180 80.11547116600613 0)" font-family="sans-serif">CITES</text></g><g class="relationship" transform="translate(-223.82629321419628 133.38801112683677) rotate(354.63351689408375)"><path class="outline" fill="#A5ABB6" stroke="none" d="M 40 0.5 L 170.79082889644624 0.5 L 170.79082889644624 -0.5 L 40 -0.5 Z M 200.34942264644624 0.5 L 331.1402515428925 0.5 L 331.1402515428925 3.5 L 338.1402515428925 0 L 331.1402515428925 -3.5 L 331.1402515428925 -0.5 L 200.34942264644624 -0.5 Z"/><text text-anchor="middle" pointer-events="none" font-size="8px" fill="#000000" x="185.57012577144624" y="3" font-family="sans-serif">CITES</text></g><g class="relationship" transform="translate(216.88257013867735 -44.83115955999518) rotate(474.2084279822289)"><path class="outline" fill="#A5ABB6" stroke="none" d="M 40 0.5 L 60.03423971022839 0.5 L 60.03423971022839 -0.5 L 40 -0.5 Z M 89.59283346022839 0.5 L 109.62707317045678 0.5 L 109.62707317045678 3.5 L 116.62707317045678 0 L 109.62707317045678 -3.5 L 109.62707317045678 -0.5 L 89.59283346022839 -0.5 Z"/><text text-anchor="middle" pointer-events="none" font-size="8px" fill="#000000" x="74.81353658522839" y="3" transform="rotate(180 74.81353658522839 0)" font-family="sans-serif">CITES</text></g><g class="relationship" transform="translate(-143.297298710137 -1.558951696054109) rotate(378.59679831504565)"><path class="outline" fill="#A5ABB6" stroke="none" d="M 40 0.5 L 137.8496908706561 0.5 L 137.8496908706561 -0.5 L 40 -0.5 Z M 167.4082846206561 0.5 L 265.2579754913122 0.5 L 265.2579754913122 3.5 L 272.2579754913122 0 L 265.2579754913122 -3.5 L 265.2579754913122 -0.5 L 167.4082846206561 -0.5 Z"/><text text-anchor="middle" pointer-events="none" font-size="8px" fill="#000000" x="152.6289877456561" y="3" font-family="sans-serif">CITES</text></g><g class="relationship" transform="translate(318.76527742267047 245.49397854368692) rotate(221.59876861111326)"><path class="outline" fill="#A5ABB6" stroke="none" d="M 40 0.5 L 92.78383552693181 0.5 L 92.78383552693181 -0.5 L 40 -0.5 Z M 122.34242927693181 0.5 L 175.12626480386362 0.5 L 175.12626480386362 3.5 L 182.12626480386362 0 L 175.12626480386362 -3.5 L 175.12626480386362 -0.5 L 122.34242927693181 -0.5 Z"/><text text-anchor="middle" pointer-events="none" font-size="8px" fill="#000000" x="107.56313240193181" y="3" transform="rotate(180 107.56313240193181 0)" font-family="sans-serif">CITES</text></g><g class="relationship" transform="translate(338.4642748002402 88.92328513629869) rotate(537.1965244954225)"><path class="outline" fill="#A5ABB6" stroke="none" d="M 40 0.5 L 74.73590805666974 0.5 L 74.73590805666974 -0.5 L 40 -0.5 Z M 104.29450180666974 0.5 L 139.0304098633395 0.5 L 139.0304098633395 3.5 L 146.0304098633395 0 L 139.0304098633395 -3.5 L 139.0304098633395 -0.5 L 104.29450180666974 -0.5 Z"/><text text-anchor="middle" pointer-events="none" font-size="8px" fill="#000000" x="89.51520493166974" y="3" transform="rotate(180 89.51520493166974 0)" font-family="sans-serif">CITES</text></g><g class="relationship" transform="translate(-143.297298710137 -1.558951696054109) rotate(370.63711096569597)"><path class="outline" fill="#A5ABB6" stroke="none" d="M 40 0.5 L 226.81315960488666 0.5 L 226.81315960488666 -0.5 L 40 -0.5 Z M 256.37175335488666 0.5 L 443.1849129597733 0.5 L 443.1849129597733 3.5 L 450.1849129597733 0 L 443.1849129597733 -3.5 L 443.1849129597733 -0.5 L 256.37175335488666 -0.5 Z"/><text text-anchor="middle" pointer-events="none" font-size="8px" fill="#000000" x="241.59245647988666" y="3" font-family="sans-serif">CITES</text></g><g class="relationship" transform="translate(318.76527742267047 245.49397854368692) rotate(277.1710094114218)"><path class="outline" fill="#A5ABB6" stroke="none" d="M 40 0.5 L 60.62322610708192 0.5 L 60.62322610708192 -0.5 L 40 -0.5 Z M 90.18181985708192 0.5 L 110.80504596416384 0.5 L 110.80504596416384 3.5 L 117.80504596416384 0 L 110.80504596416384 -3.5 L 110.80504596416384 -0.5 L 90.18181985708192 -0.5 Z"/><text text-anchor="middle" pointer-events="none" font-size="8px" fill="#000000" x="75.40252298208192" y="3" font-family="sans-serif">CITES</text></g><g class="relationship" transform="translate(-143.297298710137 -1.558951696054109) rotate(388.13226548994317)"><path class="outline" fill="#A5ABB6" stroke="none" d="M 40 0.5 L 243.70208347603221 0.5 L 243.70208347603221 -0.5 L 40 -0.5 Z M 273.2606772260322 0.5 L 476.96276070206443 0.5 L 476.96276070206443 3.5 L 483.96276070206443 0 L 476.96276070206443 -3.5 L 476.96276070206443 -0.5 L 273.2606772260322 -0.5 Z"/><text text-anchor="middle" pointer-events="none" font-size="8px" fill="#000000" x="258.4813803510322" y="3" font-family="sans-serif">CITES</text></g><g class="relationship" transform="translate(-223.82629321419628 133.38801112683677) rotate(300.8264505381739)"><path class="outline" fill="#A5ABB6" stroke="none" d="M 40 0.5 L 60.29487466208576 0.5 L 60.29487466208576 -0.5 L 40 -0.5 Z M 89.85346841208576 0.5 L 110.14834307417152 0.5 L 110.14834307417152 3.5 L 117.14834307417152 0 L 110.14834307417152 -3.5 L 110.14834307417152 -0.5 L 89.85346841208576 -0.5 Z"/><text text-anchor="middle" pointer-events="none" font-size="8px" fill="#000000" x="75.07417153708576" y="3" font-family="sans-serif">CITES</text></g><g class="relationship" transform="translate(216.88257013867735 -44.83115955999518) rotate(533.149288063106)"><path class="outline" fill="#A5ABB6" stroke="none" d="M 40 0.5 L 163.10566797694773 0.5 L 163.10566797694773 -0.5 L 40 -0.5 Z M 192.66426172694773 0.5 L 315.76992970389546 0.5 L 315.76992970389546 3.5 L 322.76992970389546 0 L 315.76992970389546 -3.5 L 315.76992970389546 -0.5 L 192.66426172694773 -0.5 Z"/><text text-anchor="middle" pointer-events="none" font-size="8px" fill="#000000" x="177.88496485194773" y="3" transform="rotate(180 177.88496485194773 0)" font-family="sans-serif">CITES</text></g></g><g class="layer nodes"><g class="node" transform="translate(-143.297298710137,-1.558951696054109)"><circle class="outline" cx="0" cy="0" r="40" fill="#6DCE9E" stroke="#60B58B" stroke-width="2px"/><text text-anchor="middle" pointer-events="none" font-family="sans-serif" dy="2.5" font-size="40" fill="#FFFFFF"/><text text-anchor="middle" pointer-events="none" y="5" font-size="10px" fill="#FFFFFF" font-family="sans-serif"> Paper 4</text></g><g class="node" transform="translate(36.0483490700135,217.89171367538702)"><circle class="outline" cx="0" cy="0" r="40" fill="#6DCE9E" stroke="#60B58B" stroke-width="2px"/><text text-anchor="middle" pointer-events="none" font-family="sans-serif" dy="2.5" font-size="40" fill="#FFFFFF"/><text text-anchor="middle" pointer-events="none" y="5" font-size="10px" fill="#FFFFFF" font-family="sans-serif"> Paper 0</text></g><g class="node" transform="translate(318.76527742267047,245.49397854368692)"><circle class="outline" cx="0" cy="0" r="40" fill="#6DCE9E" stroke="#60B58B" stroke-width="2px"/><text text-anchor="middle" pointer-events="none" font-family="sans-serif" dy="2.5" font-size="40" fill="#FFFFFF"/><text text-anchor="middle" pointer-events="none" y="5" font-size="10px" fill="#FFFFFF" font-family="sans-serif"> Paper 3</text></g><g class="node" transform="translate(338.4642748002402,88.92328513629869)"><circle class="outline" cx="0" cy="0" r="40" fill="#6DCE9E" stroke="#60B58B" stroke-width="2px"/><text text-anchor="middle" pointer-events="none" font-family="sans-serif" dy="2.5" font-size="40" fill="#FFFFFF"/><text text-anchor="middle" pointer-events="none" y="5" font-size="10px" fill="#FFFFFF" font-family="sans-serif"> Paper 2</text></g><g class="node" transform="translate(152.65651127967078,98.02209876260329)"><circle class="outline" cx="0" cy="0" r="40" fill="#6DCE9E" stroke="#60B58B" stroke-width="2px"/><text text-anchor="middle" pointer-events="none" font-family="sans-serif" dy="2.5" font-size="40" fill="#FFFFFF"/><text text-anchor="middle" pointer-events="none" y="5" font-size="10px" fill="#FFFFFF" font-family="sans-serif"> Paper 1</text></g><g class="node" transform="translate(-223.82629321419628,133.38801112683677)"><circle class="outline" cx="0" cy="0" r="40" fill="#6DCE9E" stroke="#60B58B" stroke-width="2px"/><text text-anchor="middle" pointer-events="none" font-family="sans-serif" dy="2.5" font-size="40" fill="#FFFFFF"/><text text-anchor="middle" pointer-events="none" y="5" font-size="10px" fill="#FFFFFF" font-family="sans-serif"> Paper 6</text></g><g class="node" transform="translate(216.88257013867735,-44.83115955999518)"><circle class="outline" cx="0" cy="0" r="40" fill="#6DCE9E" stroke="#60B58B" stroke-width="2px"/><text text-anchor="middle" pointer-events="none" font-family="sans-serif" dy="2.5" font-size="40" fill="#FFFFFF"/><text text-anchor="middle" pointer-events="none" y="5" font-size="10px" fill="#FFFFFF" font-family="sans-serif"> Paper 5</text></g></g></svg>