<svg xmlns="http://www.w3.org/2000/svg" width="565.9443969726562" height="276.92669677734375" viewBox="-72.08477020263672 -21.877899169921875 565.9443969726562 276.92669677734375"><title>Neo4j Graph Visualization</title><desc>Created using Neo4j (http://www.neo4j.com/)</desc><g class="layer relationships"><g class="relationship" transform="translate(204.79198059112352 22.122100292926206) rotate(536.1448300873735)"><path class="outline" fill="#A5ABB6" stroke="none" d="M 40 0.5 L 91.75518623157718 0.5 L 91.75518623157718 -0.5 L 40 -0.5 Z M 134.64971748157717 0.5 L 186.40490371315437 0.5 L 186.40490371315437 3.5 L 193.40490371315437 0 L 186.40490371315437 -3.5 L 186.40490371315437 -0.5 L 134.64971748157717 -0.5 Z"/><text text-anchor="middle" pointer-events="none" font-size="8px" fill="#000000" x="113.20245185657718" y="3" transform="rotate(180 113.20245185657718 0)" font-family="sans-serif">REVIEWS</text></g><g class="relationship" transform="translate(374.53049070459474 123.07860007256701) rotate(300.7431928746915)"><path class="outline" fill="#A5ABB6" stroke="none" d="M 10.835724717245366 38.50762352901147 L 21.188486521346196 77.14465658057419 A 21.935935394489817 21.935935394489817 0 1 1 -21.188486521346196 77.14465658057419 L -12.647458032963009 45.26910431303495 L -8.783754727806736 46.30438049344503 L -10.352761804100831 38.63703305156273 L -15.545235511830214 44.49264717772739 L -11.68153220667394 45.52792335813747 L -20.22256069505713 77.40347562567672 A 20.935935394489817 20.935935394489817 0 1 0 20.22256069505713 77.40347562567672 L 9.869798890956297 38.76644257411399 Z"/><text text-anchor="middle" pointer-events="none" font-size="8px" fill="#000000" x="0" y="113.75802982729645" font-family="sans-serif">FRIENDS</text></g><g class="relationship" transform="translate(374.53049070459474 123.07860007256701) rotate(210.7431928746915)"><path class="outline" fill="#A5ABB6" stroke="none" d="M 40 0.5 L 77.35964404795017 0.5 L 77.35964404795017 -0.5 L 40 -0.5 Z M 113.13308154795017 0.5 L 150.49272559590034 0.5 L 150.49272559590034 3.5 L 157.49272559590034 0 L 150.49272559590034 -3.5 L 150.49272559590034 -0.5 L 113.13308154795017 -0.5 Z"/><text text-anchor="middle" pointer-events="none" font-size="8px" fill="#000000" x="95.24636279795017" y="3" transform="rotate(180 95.24636279795017 0)" font-family="sans-serif">WROTE</text></g><g class="relationship" transform="translate(-28.084772363552034 37.81499711390441) rotate(411.2875236708041)"><path class="outline" fill="#A5ABB6" stroke="none" d="M 40 0.5 L 54.41602448094788 0.5 L 54.41602448094788 -0.5 L 40 -0.5 Z M 117.02149323094788 0.5 L 131.43751771189577 0.5 L 131.43751771189577 3.5 L 138.43751771189577 0 L 131.43751771189577 -3.5 L 131.43751771189577 -0.5 L 117.02149323094788 -0.5 Z"/><text text-anchor="middle" pointer-events="none" font-size="8px" fill="#000000" x="85.71875885594788" y="3" font-family="sans-serif">IN_CATEGORY</text></g></g><g class="layer nodes"><g class="node selected" transform="translate(83.51229641985309,177.04876444832317)"><circle class="outline" cx="0" cy="0" r="40" fill="#FFD86E" stroke="#EDBA39" stroke-width="2px"/><text text-anchor="middle" pointer-events="none" font-family="sans-serif" dy="2.5" font-size="40" fill="#604A0E"/><text text-anchor="middle" pointer-events="none" y="5" font-size="10px" fill="#604A0E" font-family="sans-serif"> Category</text></g><g class="node" transform="translate(374.53049070459474,123.07860007256701)"><circle class="outline" cx="0" cy="0" r="40" fill="#6DCE9E" stroke="#60B58B" stroke-width="2px"/><text text-anchor="middle" pointer-events="none" font-family="sans-serif" dy="2.5" font-size="40" fill="#FFFFFF"/><text text-anchor="middle" pointer-events="none" y="5" font-size="10px" fill="#FFFFFF" font-family="sans-serif"> User</text></g><g class="node" transform="translate(204.79198059112352,22.122100292926206)"><circle class="outline" cx="0" cy="0" r="40" fill="#FF756E" stroke="#E06760" stroke-width="2px"/><text text-anchor="middle" pointer-events="none" font-family="sans-serif" dy="2.5" font-size="40" fill="#FFFFFF"/><text text-anchor="middle" pointer-events="none" y="5" font-size="10px" fill="#FFFFFF" font-family="sans-serif"> Review</text></g><g class="node" transform="translate(-28.084772363552034,37.81499711390441)"><circle class="outline" cx="0" cy="0" r="40" fill="#68BDF6" stroke="#5CA8DB" stroke-width="2px"/><text text-anchor="middle" pointer-events="none" font-family="sans-serif" dy="2.5" font-size="40" fill="#FFFFFF"/><text text-anchor="middle" pointer-events="none" y="5" font-size="10px" fill="#FFFFFF" font-family="sans-serif"> Business</text></g></g></svg>