<svg xmlns="http://www.w3.org/2000/svg" width="943.763427734375" height="450.7680969238281" viewBox="-436.918701171875 -179.10311889648438 943.763427734375 450.7680969238281"><title>Neo4j Graph Visualization</title><desc>Created using Neo4j (http://www.neo4j.com/)</desc><g class="layer relationships"><g class="relationship" transform="translate(-324.9844229085503 186.24095473596086) rotate(307.5544488504505)"><path class="outline" fill="#A5ABB6" stroke="none" d="M 40 0.5 L 41.62697297145006 0.5 L 41.62697297145006 -0.5 L 40 -0.5 Z M 127.05666047145006 0.5 L 128.68363344290012 0.5 L 128.68363344290012 3.5 L 135.68363344290012 0 L 128.68363344290012 -3.5 L 128.68363344290012 -0.5 L 127.05666047145006 -0.5 Z"/><text text-anchor="middle" pointer-events="none" font-size="8px" fill="#000000" x="84.34181672145006" y="3" font-family="sans-serif">IN_SUPER_CATEG…</text></g><g class="relationship" transform="translate(-131.4467096455312 227.66499977460361) rotate(244.43141389625805)"><path class="outline" fill="#A5ABB6" stroke="none" d="M 40 0.5 L 49.34695872933517 0.5 L 49.34695872933517 -0.5 L 40 -0.5 Z M 143.97195872933517 0.5 L 153.31891745867034 0.5 L 153.31891745867034 3.5 L 160.31891745867034 0 L 153.31891745867034 -3.5 L 153.31891745867034 -0.5 L 143.97195872933517 -0.5 Z"/><text text-anchor="middle" pointer-events="none" font-size="8px" fill="#000000" x="96.65945872933517" y="3" transform="rotate(180 96.65945872933517 0)" font-family="sans-serif">IN_SUPER_CATEGORY</text></g><g class="relationship" transform="translate(-39.04731403573183 132.6183135513612) rotate(205.59003728430434)"><path class="outline" fill="#A5ABB6" stroke="none" d="M 40 0.5 L 48.34137943916592 0.5 L 48.34137943916592 -0.5 L 40 -0.5 Z M 142.9663794391659 0.5 L 151.30775887833184 0.5 L 151.30775887833184 3.5 L 158.30775887833184 0 L 151.30775887833184 -3.5 L 151.30775887833184 -0.5 L 142.9663794391659 -0.5 Z"/><text text-anchor="middle" pointer-events="none" font-size="8px" fill="#000000" x="95.65387943916592" y="3" transform="rotate(180 95.65387943916592 0)" font-family="sans-serif">IN_SUPER_CATEGORY</text></g><g class="relationship" transform="translate(-27.517943721472932 -24.713834622161205) rotate(519.3693115171176)"><path class="outline" fill="#A5ABB6" stroke="none" d="M 40 0.5 L 50.902727997136594 0.5 L 50.902727997136594 -0.5 L 40 -0.5 Z M 145.5277279971366 0.5 L 156.4304559942732 0.5 L 156.4304559942732 3.5 L 163.4304559942732 0 L 156.4304559942732 -3.5 L 156.4304559942732 -0.5 L 145.5277279971366 -0.5 Z"/><text text-anchor="middle" pointer-events="none" font-size="8px" fill="#000000" x="98.2152279971366" y="3" transform="rotate(180 98.2152279971366 0)" font-family="sans-serif">IN_SUPER_CATEGORY</text></g><g class="relationship" transform="translate(-120.3722834602132 -135.103112924554) rotate(478.1772825544592)"><path class="outline" fill="#A5ABB6" stroke="none" d="M 40 0.5 L 52.45946807103816 0.5 L 52.45946807103816 -0.5 L 40 -0.5 Z M 147.08446807103815 0.5 L 159.54393614207632 0.5 L 159.54393614207632 3.5 L 166.54393614207632 0 L 159.54393614207632 -3.5 L 159.54393614207632 -0.5 L 147.08446807103815 -0.5 Z"/><text text-anchor="middle" pointer-events="none" font-size="8px" fill="#000000" x="99.77196807103816" y="3" transform="rotate(180 99.77196807103816 0)" font-family="sans-serif">IN_SUPER_CATEGORY</text></g><g class="relationship" transform="translate(-392.9187085516847 -8.382178198941205) rotate(377.5486029881152)"><path class="outline" fill="#A5ABB6" stroke="none" d="M 40 0.5 L 40.96682528343307 0.5 L 40.96682528343307 -0.5 L 40 -0.5 Z M 135.59182528343308 0.5 L 136.55865056686613 0.5 L 136.55865056686613 3.5 L 143.55865056686613 0 L 136.55865056686613 -3.5 L 136.55865056686613 -0.5 L 135.59182528343308 -0.5 Z"/><text text-anchor="middle" pointer-events="none" font-size="8px" fill="#000000" x="88.27932528343307" y="3" font-family="sans-serif">IN_SUPER_CATEGORY</text></g><g class="relationship" transform="translate(52.263597871182384 -98.95536720661441) rotate(392.59845590105704)"><path class="outline" fill="#A5ABB6" stroke="none" d="M 40 0.5 L 67.37026981754586 0.5 L 67.37026981754586 -0.5 L 40 -0.5 Z M 161.99526981754587 0.5 L 189.36553963509172 0.5 L 189.36553963509172 3.5 L 196.36553963509172 0 L 189.36553963509172 -3.5 L 189.36553963509172 -0.5 L 161.99526981754587 -0.5 Z"/><text text-anchor="middle" pointer-events="none" font-size="8px" fill="#000000" x="114.68276981754586" y="3" font-family="sans-serif">IN_SUPER_CATEGORY</text></g><g class="relationship" transform="translate(32.11556067456131 60.12136750526024) rotate(351.764989322224)"><path class="outline" fill="#A5ABB6" stroke="none" d="M 40 0.5 L 59.96887087891304 0.5 L 59.96887087891304 -0.5 L 40 -0.5 Z M 154.59387087891304 0.5 L 174.56274175782607 0.5 L 174.56274175782607 3.5 L 181.56274175782607 0 L 174.56274175782607 -3.5 L 174.56274175782607 -0.5 L 154.59387087891304 -0.5 Z"/><text text-anchor="middle" pointer-events="none" font-size="8px" fill="#000000" x="107.28137087891304" y="3" font-family="sans-serif">IN_SUPER_CATEGORY</text></g><g class="relationship" transform="translate(462.84476592006786 142.281550732953) rotate(208.30856838948114)"><path class="outline" fill="#A5ABB6" stroke="none" d="M 40 0.5 L 69.27466079222734 0.5 L 69.27466079222734 -0.5 L 40 -0.5 Z M 163.89966079222734 0.5 L 193.17432158445467 0.5 L 193.17432158445467 3.5 L 200.17432158445467 0 L 193.17432158445467 -3.5 L 193.17432158445467 -0.5 L 163.89966079222734 -0.5 Z"/><text text-anchor="middle" pointer-events="none" font-size="8px" fill="#000000" x="116.58716079222734" y="3" transform="rotate(180 116.58716079222734 0)" font-family="sans-serif">IN_SUPER_CATEGORY</text></g><g class="relationship" transform="translate(114.50243305947262 204.8403676379265) rotate(307.8039251659047)"><path class="outline" fill="#A5ABB6" stroke="none" d="M 40 0.5 L 60.851432256998606 0.5 L 60.851432256998606 -0.5 L 40 -0.5 Z M 155.4764322569986 0.5 L 176.3278645139972 0.5 L 176.3278645139972 3.5 L 183.3278645139972 0 L 176.3278645139972 -3.5 L 176.3278645139972 -0.5 L 155.4764322569986 -0.5 Z"/><text text-anchor="middle" pointer-events="none" font-size="8px" fill="#000000" x="108.1639322569986" y="3" font-family="sans-serif">IN_SUPER_CATEGORY</text></g><g class="relationship" transform="translate(338.28450196592013 215.41582606358207) rotate(245.08123730007816)"><path class="outline" fill="#A5ABB6" stroke="none" d="M 40 0.5 L 52.30165630525636 0.5 L 52.30165630525636 -0.5 L 40 -0.5 Z M 146.92665630525636 0.5 L 159.22831261051272 0.5 L 159.22831261051272 3.5 L 166.22831261051272 0 L 159.22831261051272 -3.5 L 159.22831261051272 -0.5 L 146.92665630525636 -0.5 Z"/><text text-anchor="middle" pointer-events="none" font-size="8px" fill="#000000" x="99.61415630525636" y="3" transform="rotate(180 99.61415630525636 0)" font-family="sans-serif">IN_SUPER_CATEGORY</text></g><g class="relationship" transform="translate(435.6728500821864 -112.31248160141912) rotate(502.6379717036393)"><path class="outline" fill="#A5ABB6" stroke="none" d="M 40 0.5 L 65.11299678758664 0.5 L 65.11299678758664 -0.5 L 40 -0.5 Z M 159.73799678758664 0.5 L 184.85099357517328 0.5 L 184.85099357517328 3.5 L 191.85099357517328 0 L 184.85099357517328 -3.5 L 184.85099357517328 -0.5 L 159.73799678758664 -0.5 Z"/><text text-anchor="middle" pointer-events="none" font-size="8px" fill="#000000" x="112.42549678758664" y="3" transform="rotate(180 112.42549678758664 0)" font-family="sans-serif">IN_SUPER_CATEGORY</text></g></g><g class="layer nodes"><g class="node" transform="translate(-324.9844229085503,186.24095473596086)"><circle class="outline" cx="0" cy="0" r="40" fill="#FFD86E" stroke="#EDBA39" stroke-width="2px"/><text text-anchor="middle" pointer-events="none" font-family="sans-serif" dy="2.5" font-size="40" fill="#604A0E"/><text text-anchor="middle" pointer-events="none" y="5" font-size="10px" fill="#604A0E" font-family="sans-serif"> Noodles</text></g><g class="node" transform="translate(-217.9025977888982,46.96345551679934)"><circle class="outline" cx="0" cy="0" r="40" fill="#68BDF6" stroke="#5CA8DB" stroke-width="2px"/><text text-anchor="middle" pointer-events="none" font-family="sans-serif" dy="2.5" font-size="40" fill="#FFFFFF"/><text text-anchor="middle" pointer-events="none" y="5" font-size="10px" fill="#FFFFFF" font-family="sans-serif"> SuperCategory…</text></g><g class="node" transform="translate(-131.4467096455312,227.66499977460361)"><circle class="outline" cx="0" cy="0" r="40" fill="#FFD86E" stroke="#EDBA39" stroke-width="2px"/><text text-anchor="middle" pointer-events="none" font-family="sans-serif" dy="2.5" font-size="40" fill="#604A0E"/><text text-anchor="middle" pointer-events="none" y="5" font-size="10px" fill="#604A0E" font-family="sans-serif"> Schnitzel</text></g><g class="node" transform="translate(-39.04731403573183,132.6183135513612)"><circle class="outline" cx="0" cy="0" r="40" fill="#FFD86E" stroke="#EDBA39" stroke-width="2px"/><text text-anchor="middle" pointer-events="none" font-family="sans-serif" dy="2.5" font-size="40" fill="#604A0E"/><text text-anchor="middle" pointer-events="none" y="5" font-size="10px" fill="#604A0E" font-family="sans-serif"> Tapas Bars</text></g><g class="node" transform="translate(-27.517943721472932,-24.713834622161205)"><circle class="outline" cx="0" cy="0" r="40" fill="#FFD86E" stroke="#EDBA39" stroke-width="2px"/><text text-anchor="middle" pointer-events="none" font-family="sans-serif" dy="2.5" font-size="40" fill="#604A0E"/><text text-anchor="middle" pointer-events="none" y="5" font-size="10px" fill="#604A0E" font-family="sans-serif"> Latin American</text></g><g class="node" transform="translate(-120.3722834602132,-135.103112924554)"><circle class="outline" cx="0" cy="0" r="40" fill="#FFD86E" stroke="#EDBA39" stroke-width="2px"/><text text-anchor="middle" pointer-events="none" font-family="sans-serif" dy="2.5" font-size="40" fill="#604A0E"/><text text-anchor="middle" pointer-events="none" y="5" font-size="10px" fill="#604A0E" font-family="sans-serif"> Shanghainese</text></g><g class="node" transform="translate(-392.9187085516847,-8.382178198941205)"><circle class="outline" cx="0" cy="0" r="40" fill="#FFD86E" stroke="#EDBA39" stroke-width="2px"/><text text-anchor="middle" pointer-events="none" font-family="sans-serif" dy="2.5" font-size="40" fill="#604A0E"/><text text-anchor="middle" pointer-events="none" y="5" font-size="10px" fill="#604A0E" font-family="sans-serif"> Filipino</text></g><g class="node" transform="translate(52.263597871182384,-98.95536720661441)"><circle class="outline" cx="0" cy="0" r="40" fill="#FFD86E" stroke="#EDBA39" stroke-width="2px"/><text text-anchor="middle" pointer-events="none" font-family="sans-serif" dy="2.5" font-size="40" fill="#604A0E"/><text text-anchor="middle" pointer-events="none" y="5" font-size="10px" fill="#604A0E" font-family="sans-serif"> Hotels</text></g><g class="node" transform="translate(251.39374518227999,28.386113697483275)"><circle class="outline" cx="0" cy="0" r="40" fill="#68BDF6" stroke="#5CA8DB" stroke-width="2px"/><text text-anchor="middle" pointer-events="none" font-family="sans-serif" dy="2.5" font-size="40" fill="#FFFFFF"/><text text-anchor="middle" pointer-events="none" y="5" font-size="10px" fill="#FFFFFF" font-family="sans-serif"> SuperCategory…</text></g><g class="node" transform="translate(32.11556067456131,60.12136750526024)"><circle class="outline" cx="0" cy="0" r="40" fill="#FFD86E" stroke="#EDBA39" stroke-width="2px"/><text text-anchor="middle" pointer-events="none" font-family="sans-serif" dy="2.5" font-size="40" fill="#604A0E"/><text text-anchor="middle" pointer-events="none" y="5" font-size="10px" fill="#604A0E" font-family="sans-serif"> Bed &amp; Breakfast</text></g><g class="node" transform="translate(462.84476592006786,142.281550732953)"><circle class="outline" cx="0" cy="0" r="40" fill="#FFD86E" stroke="#EDBA39" stroke-width="2px"/><text text-anchor="middle" pointer-events="none" font-family="sans-serif" dy="2.5" font-size="40" fill="#604A0E"/><text text-anchor="middle" pointer-events="none" font-family="sans-serif" dy="2.5" font-size="40" fill="#604A0E"/><text text-anchor="middle" pointer-events="none" y="0" font-size="10px" fill="#604A0E" font-family="sans-serif"> Private Jet</text><text text-anchor="middle" pointer-events="none" y="10" font-size="10px" fill="#604A0E" font-family="sans-serif"> Charter</text></g><g class="node" transform="translate(114.50243305947262,204.8403676379265)"><circle class="outline" cx="0" cy="0" r="40" fill="#FFD86E" stroke="#EDBA39" stroke-width="2px"/><text text-anchor="middle" pointer-events="none" font-family="sans-serif" dy="2.5" font-size="40" fill="#604A0E"/><text text-anchor="middle" pointer-events="none" y="5" font-size="10px" fill="#604A0E" font-family="sans-serif"> Ski Resorts</text></g><g class="node" transform="translate(338.28450196592013,215.41582606358207)"><circle class="outline" cx="0" cy="0" r="40" fill="#FFD86E" stroke="#EDBA39" stroke-width="2px"/><text text-anchor="middle" pointer-events="none" font-family="sans-serif" dy="2.5" font-size="40" fill="#604A0E"/><text text-anchor="middle" pointer-events="none" y="5" font-size="10px" fill="#604A0E" font-family="sans-serif"> Car Rental</text></g><g class="node" transform="translate(435.6728500821864,-112.31248160141912)"><circle class="outline" cx="0" cy="0" r="40" fill="#FFD86E" stroke="#EDBA39" stroke-width="2px"/><text text-anchor="middle" pointer-events="none" font-family="sans-serif" dy="2.5" font-size="40" fill="#604A0E"/><text text-anchor="middle" pointer-events="none" y="5" font-size="10px" fill="#604A0E" font-family="sans-serif"> RV Parks</text></g></g></svg>