<svg xmlns="http://www.w3.org/2000/svg" width="687.7512817382812" height="248.79994201660156" viewBox="-319.19110107421875 -154.9862823486328 687.7512817382812 248.79994201660156"><title>Neo4j Graph Visualization</title><desc>Created using Neo4j (http://www.neo4j.com/)</desc><g class="layer relationships"><g class="relationship" transform="translate(62.21296454085035 -109.53446264807772) rotate(451.7235682028605)"><path class="outline" fill="#A5ABB6" stroke="none" d="M 40 0.5 L 54.762860371570866 0.5 L 54.762860371570866 -0.5 L 40 -0.5 Z M 97.65739162157087 0.5 L 112.42025199314173 0.5 L 112.42025199314173 3.5 L 119.42025199314173 0 L 112.42025199314173 -3.5 L 112.42025199314173 -0.5 L 97.65739162157087 -0.5 Z"/><text text-anchor="middle" pointer-events="none" font-size="8px" fill="#000000" x="76.21012599657087" y="3" transform="rotate(180 76.21012599657087 0)" font-family="sans-serif">REVIEWS</text></g><g class="relationship" transform="translate(-275.1911161926507 44.08778899754412) rotate(317.8341689979603)"><path class="outline" fill="#A5ABB6" stroke="none" d="M 40 0.5 L 83.07678917327908 0.5 L 83.07678917327908 -0.5 L 40 -0.5 Z M 140.93616417327908 0.5 L 184.01295334655816 0.5 L 184.01295334655816 3.5 L 191.01295334655816 0 L 184.01295334655816 -3.5 L 184.01295334655816 -0.5 L 140.93616417327908 -0.5 Z"/><text text-anchor="middle" pointer-events="none" font-size="8px" fill="#000000" x="112.00647667327908" y="3" font-family="sans-serif">IN_COUNTRY</text></g><g class="relationship" transform="translate(249.18053289167426 -105.96509177204024) rotate(271.09369260493725)"><path class="outline" fill="#A5ABB6" stroke="none" d="M 10.835724717245366 38.50762352901147 L 21.188486521346196 77.14465658057419 A 21.935935394489817 21.935935394489817 0 1 1 -21.188486521346196 77.14465658057419 L -12.647458032963009 45.26910431303495 L -8.783754727806736 46.30438049344503 L -10.352761804100831 38.63703305156273 L -15.545235511830214 44.49264717772739 L -11.68153220667394 45.52792335813747 L -20.22256069505713 77.40347562567672 A 20.935935394489817 20.935935394489817 0 1 0 20.22256069505713 77.40347562567672 L 9.869798890956297 38.76644257411399 Z"/><text text-anchor="middle" pointer-events="none" font-size="8px" fill="#000000" x="0" y="113.75802982729645" font-family="sans-serif">FRIENDS</text></g><g class="relationship" transform="translate(249.18053289167426 -105.96509177204024) rotate(181.09369260493725)"><path class="outline" fill="#A5ABB6" stroke="none" d="M 40 0.5 L 72.11409945961611 0.5 L 72.11409945961611 -0.5 L 40 -0.5 Z M 107.88753695961611 0.5 L 140.00163641923223 0.5 L 140.00163641923223 3.5 L 147.00163641923223 0 L 140.00163641923223 -3.5 L 140.00163641923223 -0.5 L 107.88753695961611 -0.5 Z"/><text text-anchor="middle" pointer-events="none" font-size="8px" fill="#000000" x="90.00081820961611" y="3" transform="rotate(180 90.00081820961611 0)" font-family="sans-serif">WROTE</text></g><g class="relationship" transform="translate(57.41801733478879 49.813663248802214) rotate(359.12530284691434)"><path class="outline" fill="#A5ABB6" stroke="none" d="M 40 0.5 L 58.46645037273126 0.5 L 58.46645037273126 -0.5 L 40 -0.5 Z M 121.07191912273126 0.5 L 139.53836949546252 0.5 L 139.53836949546252 3.5 L 146.53836949546252 0 L 139.53836949546252 -3.5 L 139.53836949546252 -0.5 L 121.07191912273126 -0.5 Z"/><text text-anchor="middle" pointer-events="none" font-size="8px" fill="#000000" x="89.76918474773126" y="3" font-family="sans-serif">IN_CATEGORY</text></g><g class="relationship" transform="translate(-103.09973246554064 48.839985907342566) rotate(181.5817854589152)"><path class="outline" fill="#A5ABB6" stroke="none" d="M 40 0.5 L 62.46130535474995 0.5 L 62.46130535474995 -0.5 L 40 -0.5 Z M 102.69568035474995 0.5 L 125.1569857094999 0.5 L 125.1569857094999 3.5 L 132.1569857094999 0 L 125.1569857094999 -3.5 L 125.1569857094999 -0.5 L 102.69568035474995 -0.5 Z"/><text text-anchor="middle" pointer-events="none" font-size="8px" fill="#000000" x="82.57849285474995" y="3" transform="rotate(180 82.57849285474995 0)" font-family="sans-serif">IN_AREA</text></g><g class="relationship" transform="translate(57.41801733478879 49.813663248802214) rotate(180.3475436089173)"><path class="outline" fill="#A5ABB6" stroke="none" d="M 40 0.5 L 58.42441393289373 0.5 L 58.42441393289373 -0.5 L 40 -0.5 Z M 95.09628893289373 0.5 L 113.52070286578746 0.5 L 113.52070286578746 3.5 L 120.52070286578746 0 L 113.52070286578746 -3.5 L 113.52070286578746 -0.5 L 95.09628893289373 -0.5 Z"/><text text-anchor="middle" pointer-events="none" font-size="8px" fill="#000000" x="76.76035143289373" y="3" transform="rotate(180 76.76035143289373 0)" font-family="sans-serif">IN_CITY</text></g></g><g class="layer nodes"><g class="node" transform="translate(-275.1911161926507,44.08778899754412)"><circle class="outline" cx="0" cy="0" r="40" fill="#FF756E" stroke="#E06760" stroke-width="2px"/><text text-anchor="middle" pointer-events="none" font-family="sans-serif" dy="2.5" font-size="40" fill="#FFFFFF"/><text text-anchor="middle" pointer-events="none" y="5" font-size="10px" fill="#FFFFFF" font-family="sans-serif"> Area</text></g><g class="node" transform="translate(243.9346498151499,46.9660147080574)"><circle class="outline" cx="0" cy="0" r="40" fill="#FFD86E" stroke="#EDBA39" stroke-width="2px"/><text text-anchor="middle" pointer-events="none" font-family="sans-serif" dy="2.5" font-size="40" fill="#604A0E"/><text text-anchor="middle" pointer-events="none" y="5" font-size="10px" fill="#604A0E" font-family="sans-serif"> Category</text></g><g class="node" transform="translate(249.18053289167426,-105.96509177204024)"><circle class="outline" cx="0" cy="0" r="40" fill="#6DCE9E" stroke="#60B58B" stroke-width="2px"/><text text-anchor="middle" pointer-events="none" font-family="sans-serif" dy="2.5" font-size="40" fill="#FFFFFF"/><text text-anchor="middle" pointer-events="none" y="5" font-size="10px" fill="#FFFFFF" font-family="sans-serif"> User</text></g><g class="node" transform="translate(-103.96314790072665,-110.98628197668063)"><circle class="outline" cx="0" cy="0" r="40" fill="#A5ABB6" stroke="#9AA1AC" stroke-width="2px"/><text text-anchor="middle" pointer-events="none" font-family="sans-serif" dy="2.5" font-size="40" fill="#FFFFFF"/><text text-anchor="middle" pointer-events="none" y="5" font-size="10px" fill="#FFFFFF" font-family="sans-serif"> Country</text></g><g class="node" transform="translate(62.21296454085035,-109.53446264807772)"><circle class="outline" cx="0" cy="0" r="40" fill="#FF756E" stroke="#E06760" stroke-width="2px"/><text text-anchor="middle" pointer-events="none" font-family="sans-serif" dy="2.5" font-size="40" fill="#FFFFFF"/><text text-anchor="middle" pointer-events="none" y="5" font-size="10px" fill="#FFFFFF" font-family="sans-serif"> Review</text></g><g class="node" transform="translate(-103.09973246554064,48.839985907342566)"><circle class="outline" cx="0" cy="0" r="40" fill="#DE9BF9" stroke="#BF85D6" stroke-width="2px"/><text text-anchor="middle" pointer-events="none" font-family="sans-serif" dy="2.5" font-size="40" fill="#FFFFFF"/><text text-anchor="middle" pointer-events="none" y="5" font-size="10px" fill="#FFFFFF" font-family="sans-serif"> City</text></g><g class="node" transform="translate(57.41801733478879,49.813663248802214)"><circle class="outline" cx="0" cy="0" r="40" fill="#68BDF6" stroke="#5CA8DB" stroke-width="2px"/><text text-anchor="middle" pointer-events="none" font-family="sans-serif" dy="2.5" font-size="40" fill="#FFFFFF"/><text text-anchor="middle" pointer-events="none" y="5" font-size="10px" fill="#FFFFFF" font-family="sans-serif"> Business</text></g></g></svg>