<svg xmlns="http://www.w3.org/2000/svg" width="967.903076171875" height="184.28955078125" viewBox="-539.020751953125 50.091064453125 967.903076171875 184.28955078125"><title>Neo4j Graph Visualization</title><desc>Created using Neo4j (http://www.neo4j.com/)</desc><g class="layer relationships"><g class="relationship" transform="translate(-495.02073391649367 109.70052643553247) rotate(377.7328455172104)"><path class="outline" fill="#A5ABB6" stroke="none" d="M 40 0.5 L 118.16003778063967 0.5 L 118.16003778063967 -0.5 L 40 -0.5 Z M 139.73035028063967 0.5 L 217.89038806127934 0.5 L 217.89038806127934 3.5 L 224.89038806127934 0 L 217.89038806127934 -3.5 L 217.89038806127934 -0.5 L 139.73035028063967 -0.5 Z"/><text text-anchor="middle" pointer-events="none" font-size="8px" fill="#000000" x="128.94519403063967" y="3" font-family="sans-serif">50.0</text></g><g class="relationship" transform="translate(-242.7160738573095 190.38061195652512) rotate(330.33937756346995)"><path class="outline" fill="#A5ABB6" stroke="none" d="M 40 0.5 L 83.00422424101714 0.5 L 83.00422424101714 -0.5 L 40 -0.5 Z M 104.57453674101714 0.5 L 147.57876098203428 0.5 L 147.57876098203428 3.5 L 154.57876098203428 0 L 147.57876098203428 -3.5 L 147.57876098203428 -0.5 L 104.57453674101714 -0.5 Z"/><text text-anchor="middle" pointer-events="none" font-size="8px" fill="#000000" x="93.78938049101714" y="3" font-family="sans-serif">40.0</text></g><g class="relationship" transform="translate(-73.63261336099602 94.09106105978853) rotate(375.2263094613636)"><path class="outline" fill="#A5ABB6" stroke="none" d="M 40 0.5 L 81.54661246702867 0.5 L 81.54661246702867 -0.5 L 40 -0.5 Z M 103.11692496702867 0.5 L 144.66353743405733 0.5 L 144.66353743405733 3.5 L 151.66353743405733 0 L 144.66353743405733 -3.5 L 144.66353743405733 -0.5 L 103.11692496702867 -0.5 Z"/><text text-anchor="middle" pointer-events="none" font-size="8px" fill="#000000" x="92.33176871702867" y="3" font-family="sans-serif">30.0</text></g><g class="relationship" transform="translate(111.30276705337874 144.42809169059535) rotate(351.5658474059725)"><path class="outline" fill="#A5ABB6" stroke="none" d="M 40 0.5 L 124.00017938941392 0.5 L 124.00017938941392 -0.5 L 40 -0.5 Z M 145.57049188941392 0.5 L 229.57067127882783 0.5 L 229.57067127882783 3.5 L 236.57067127882783 0 L 229.57067127882783 -3.5 L 229.57067127882783 -0.5 L 145.57049188941392 -0.5 Z"/><text text-anchor="middle" pointer-events="none" font-size="8px" fill="#000000" x="134.78533563941392" y="3" font-family="sans-serif">40.0</text></g></g><g class="layer nodes"><g class="node" transform="translate(-495.02073391649367,109.70052643553247)"><circle class="outline" cx="0" cy="0" r="40" fill="#DA7194" stroke="#cc3c6c" stroke-width="2px"/><text text-anchor="middle" pointer-events="none" font-family="sans-serif" dy="2.5" font-size="40" fill="#FFFFFF"/><text text-anchor="middle" pointer-events="none" y="5" font-size="10px" fill="#FFFFFF" font-family="sans-serif"> A</text></g><g class="node" transform="translate(-242.7160738573095,190.38061195652512)"><circle class="outline" cx="0" cy="0" r="40" fill="#DA7194" stroke="#cc3c6c" stroke-width="2px"/><text text-anchor="middle" pointer-events="none" font-family="sans-serif" dy="2.5" font-size="40" fill="#FFFFFF"/><text text-anchor="middle" pointer-events="none" y="5" font-size="10px" fill="#FFFFFF" font-family="sans-serif"> B</text></g><g class="node" transform="translate(-73.63261336099602,94.09106105978853)"><circle class="outline" cx="0" cy="0" r="40" fill="#DA7194" stroke="#cc3c6c" stroke-width="2px"/><text text-anchor="middle" pointer-events="none" font-family="sans-serif" dy="2.5" font-size="40" fill="#FFFFFF"/><text text-anchor="middle" pointer-events="none" y="5" font-size="10px" fill="#FFFFFF" font-family="sans-serif"> D</text></g><g class="node" transform="translate(111.30276705337874,144.42809169059535)"><circle class="outline" cx="0" cy="0" r="40" fill="#DA7194" stroke="#cc3c6c" stroke-width="2px"/><text text-anchor="middle" pointer-events="none" font-family="sans-serif" dy="2.5" font-size="40" fill="#FFFFFF"/><text text-anchor="middle" pointer-events="none" y="5" font-size="10px" fill="#FFFFFF" font-family="sans-serif"> E</text></g><g class="node" transform="translate(384.88234885502766,103.86272921401574)"><circle class="outline" cx="0" cy="0" r="40" fill="#DA7194" stroke="#cc3c6c" stroke-width="2px"/><text text-anchor="middle" pointer-events="none" font-family="sans-serif" dy="2.5" font-size="40" fill="#FFFFFF"/><text text-anchor="middle" pointer-events="none" y="5" font-size="10px" fill="#FFFFFF" font-family="sans-serif"> F</text></g></g></svg>